<mxfile host="app.diagrams.net" agent="Mozilla/5.0 (Windows NT 10.0; Win64; x64) AppleWebKit/537.36 (KHTML, like Gecko) Chrome/131.0.0.0 Safari/537.36" version="25.0.3">
  <diagram name="Page-1" id="LUrV-DdgKYJ3N1HXCYiW">
    <mxGraphModel dx="2514" dy="2087" grid="1" gridSize="10" guides="1" tooltips="1" connect="1" arrows="1" fold="1" page="1" pageScale="1" pageWidth="827" pageHeight="1169" math="0" shadow="0">
      <root>
        <mxCell id="0" />
        <mxCell id="1" parent="0" />
        <mxCell id="L7qjdz2lYvju2Gd1Jquw-17" style="edgeStyle=orthogonalEdgeStyle;rounded=0;orthogonalLoop=1;jettySize=auto;html=1;exitX=1;exitY=0.5;exitDx=0;exitDy=0;entryX=0;entryY=0.5;entryDx=0;entryDy=0;" edge="1" parent="1" source="L7qjdz2lYvju2Gd1Jquw-4" target="L7qjdz2lYvju2Gd1Jquw-7">
          <mxGeometry relative="1" as="geometry" />
        </mxCell>
        <mxCell id="L7qjdz2lYvju2Gd1Jquw-4" value="&lt;p style=&quot;margin:0px;margin-top:4px;text-align:center;&quot;&gt;&lt;b&gt;mapScript&lt;/b&gt;&lt;/p&gt;" style="verticalAlign=top;align=left;overflow=fill;html=1;whiteSpace=wrap;" vertex="1" parent="1">
          <mxGeometry x="-793" y="-70" width="170" height="150" as="geometry" />
        </mxCell>
        <mxCell id="L7qjdz2lYvju2Gd1Jquw-5" value="&lt;p style=&quot;margin:0px;margin-top:4px;text-align:center;&quot;&gt;&lt;b&gt;_room&lt;/b&gt;&lt;/p&gt;&lt;hr size=&quot;1&quot; style=&quot;border-style:solid;&quot;&gt;&lt;div style=&quot;height:2px;&quot;&gt;&lt;/div&gt;" style="verticalAlign=top;align=left;overflow=fill;html=1;whiteSpace=wrap;" vertex="1" parent="1">
          <mxGeometry x="-773" y="-30" width="130" height="90" as="geometry" />
        </mxCell>
        <mxCell id="L7qjdz2lYvju2Gd1Jquw-6" value="&lt;h1 style=&quot;margin-top: 0px;&quot;&gt;MapScript&lt;/h1&gt;&lt;p&gt;holds its own class for room definitions. this creates the visual map in the corner as will as the generate all the rooms for the map&lt;/p&gt;" style="text;html=1;whiteSpace=wrap;overflow=hidden;rounded=0;" vertex="1" parent="1">
          <mxGeometry x="-793" y="-210" width="170" height="120" as="geometry" />
        </mxCell>
        <mxCell id="L7qjdz2lYvju2Gd1Jquw-18" style="edgeStyle=orthogonalEdgeStyle;rounded=0;orthogonalLoop=1;jettySize=auto;html=1;exitX=1;exitY=0.5;exitDx=0;exitDy=0;entryX=0;entryY=0.5;entryDx=0;entryDy=0;" edge="1" parent="1" source="L7qjdz2lYvju2Gd1Jquw-7" target="L7qjdz2lYvju2Gd1Jquw-15">
          <mxGeometry relative="1" as="geometry" />
        </mxCell>
        <mxCell id="L7qjdz2lYvju2Gd1Jquw-19" style="edgeStyle=orthogonalEdgeStyle;rounded=0;orthogonalLoop=1;jettySize=auto;html=1;exitX=1;exitY=0.5;exitDx=0;exitDy=0;entryX=0;entryY=0.5;entryDx=0;entryDy=0;" edge="1" parent="1" source="L7qjdz2lYvju2Gd1Jquw-7" target="L7qjdz2lYvju2Gd1Jquw-10">
          <mxGeometry relative="1" as="geometry" />
        </mxCell>
        <mxCell id="L7qjdz2lYvju2Gd1Jquw-20" style="edgeStyle=orthogonalEdgeStyle;rounded=0;orthogonalLoop=1;jettySize=auto;html=1;exitX=1;exitY=0.5;exitDx=0;exitDy=0;entryX=0;entryY=0.5;entryDx=0;entryDy=0;" edge="1" parent="1" source="L7qjdz2lYvju2Gd1Jquw-7" target="L7qjdz2lYvju2Gd1Jquw-13">
          <mxGeometry relative="1" as="geometry" />
        </mxCell>
        <mxCell id="L7qjdz2lYvju2Gd1Jquw-33" style="edgeStyle=orthogonalEdgeStyle;rounded=0;orthogonalLoop=1;jettySize=auto;html=1;exitX=1;exitY=0.5;exitDx=0;exitDy=0;entryX=0;entryY=0.5;entryDx=0;entryDy=0;" edge="1" parent="1" source="L7qjdz2lYvju2Gd1Jquw-7" target="L7qjdz2lYvju2Gd1Jquw-30">
          <mxGeometry relative="1" as="geometry" />
        </mxCell>
        <mxCell id="L7qjdz2lYvju2Gd1Jquw-7" value="&lt;p style=&quot;margin:0px;margin-top:4px;text-align:center;&quot;&gt;&lt;b&gt;RoomScript&lt;/b&gt;&lt;/p&gt;" style="verticalAlign=top;align=left;overflow=fill;html=1;whiteSpace=wrap;" vertex="1" parent="1">
          <mxGeometry x="-513" y="-70" width="170" height="150" as="geometry" />
        </mxCell>
        <mxCell id="L7qjdz2lYvju2Gd1Jquw-9" value="&lt;h1 style=&quot;margin-top: 0px;&quot;&gt;RoomScript&lt;/h1&gt;&lt;p&gt;holds its own class for room definitions. this creates the visual map in the corner as will as the generate all the rooms for the map&lt;/p&gt;" style="text;html=1;whiteSpace=wrap;overflow=hidden;rounded=0;" vertex="1" parent="1">
          <mxGeometry x="-513" y="-210" width="170" height="120" as="geometry" />
        </mxCell>
        <mxCell id="L7qjdz2lYvju2Gd1Jquw-21" style="edgeStyle=orthogonalEdgeStyle;rounded=0;orthogonalLoop=1;jettySize=auto;html=1;exitX=0;exitY=0.75;exitDx=0;exitDy=0;entryX=0;entryY=0.25;entryDx=0;entryDy=0;" edge="1" parent="1" source="L7qjdz2lYvju2Gd1Jquw-10" target="L7qjdz2lYvju2Gd1Jquw-15">
          <mxGeometry relative="1" as="geometry">
            <Array as="points">
              <mxPoint x="-260" y="-297" />
              <mxPoint x="-260" y="-32" />
            </Array>
          </mxGeometry>
        </mxCell>
        <mxCell id="L7qjdz2lYvju2Gd1Jquw-24" style="edgeStyle=orthogonalEdgeStyle;rounded=0;orthogonalLoop=1;jettySize=auto;html=1;exitX=1;exitY=0.5;exitDx=0;exitDy=0;entryX=0;entryY=0.5;entryDx=0;entryDy=0;" edge="1" parent="1" source="L7qjdz2lYvju2Gd1Jquw-10" target="L7qjdz2lYvju2Gd1Jquw-22">
          <mxGeometry relative="1" as="geometry" />
        </mxCell>
        <mxCell id="L7qjdz2lYvju2Gd1Jquw-10" value="&lt;p style=&quot;margin:0px;margin-top:4px;text-align:center;&quot;&gt;&lt;b&gt;CardManager&lt;/b&gt;&lt;/p&gt;" style="verticalAlign=top;align=left;overflow=fill;html=1;whiteSpace=wrap;" vertex="1" parent="1">
          <mxGeometry x="-223" y="-410" width="170" height="150" as="geometry" />
        </mxCell>
        <mxCell id="L7qjdz2lYvju2Gd1Jquw-12" value="&lt;h1 style=&quot;margin-top: 0px;&quot;&gt;CardManager&lt;/h1&gt;&lt;p&gt;holds its own class for room definitions. this creates the visual map in the corner as will as the generate all the rooms for the map&lt;/p&gt;" style="text;html=1;whiteSpace=wrap;overflow=hidden;rounded=0;" vertex="1" parent="1">
          <mxGeometry x="-223" y="-550" width="170" height="120" as="geometry" />
        </mxCell>
        <mxCell id="L7qjdz2lYvju2Gd1Jquw-29" style="edgeStyle=orthogonalEdgeStyle;rounded=0;orthogonalLoop=1;jettySize=auto;html=1;exitX=1;exitY=0.5;exitDx=0;exitDy=0;entryX=0;entryY=0.5;entryDx=0;entryDy=0;" edge="1" parent="1" source="L7qjdz2lYvju2Gd1Jquw-13" target="L7qjdz2lYvju2Gd1Jquw-26">
          <mxGeometry relative="1" as="geometry" />
        </mxCell>
        <mxCell id="L7qjdz2lYvju2Gd1Jquw-13" value="&lt;p style=&quot;margin:0px;margin-top:4px;text-align:center;&quot;&gt;&lt;b&gt;CardLibrary&lt;/b&gt;&lt;/p&gt;" style="verticalAlign=top;align=left;overflow=fill;html=1;whiteSpace=wrap;" vertex="1" parent="1">
          <mxGeometry x="-223" y="580" width="170" height="150" as="geometry" />
        </mxCell>
        <mxCell id="L7qjdz2lYvju2Gd1Jquw-14" value="&lt;h1 style=&quot;margin-top: 0px;&quot;&gt;CardLibrary&lt;/h1&gt;&lt;p&gt;holds its own class for room definitions. this creates the visual map in the corner as will as the generate all the rooms for the map&lt;/p&gt;" style="text;html=1;whiteSpace=wrap;overflow=hidden;rounded=0;" vertex="1" parent="1">
          <mxGeometry x="-223" y="440" width="170" height="120" as="geometry" />
        </mxCell>
        <mxCell id="L7qjdz2lYvju2Gd1Jquw-61" style="edgeStyle=orthogonalEdgeStyle;rounded=0;orthogonalLoop=1;jettySize=auto;html=1;exitX=0.25;exitY=1;exitDx=0;exitDy=0;entryX=0.5;entryY=1;entryDx=0;entryDy=0;" edge="1" parent="1" source="L7qjdz2lYvju2Gd1Jquw-15" target="L7qjdz2lYvju2Gd1Jquw-4">
          <mxGeometry relative="1" as="geometry" />
        </mxCell>
        <mxCell id="L7qjdz2lYvju2Gd1Jquw-71" style="edgeStyle=orthogonalEdgeStyle;rounded=0;orthogonalLoop=1;jettySize=auto;html=1;exitX=1;exitY=0.5;exitDx=0;exitDy=0;entryX=0;entryY=0.5;entryDx=0;entryDy=0;" edge="1" parent="1" source="L7qjdz2lYvju2Gd1Jquw-15" target="L7qjdz2lYvju2Gd1Jquw-69">
          <mxGeometry relative="1" as="geometry" />
        </mxCell>
        <mxCell id="L7qjdz2lYvju2Gd1Jquw-15" value="&lt;p style=&quot;margin:0px;margin-top:4px;text-align:center;&quot;&gt;&lt;b&gt;CombatManager&lt;/b&gt;&lt;/p&gt;" style="verticalAlign=top;align=left;overflow=fill;html=1;whiteSpace=wrap;" vertex="1" parent="1">
          <mxGeometry x="-233" y="-70" width="190" height="150" as="geometry" />
        </mxCell>
        <mxCell id="L7qjdz2lYvju2Gd1Jquw-16" value="&lt;h1 style=&quot;margin-top: 0px;&quot;&gt;CombatManager&lt;/h1&gt;&lt;p&gt;holds its own class for room definitions. this creates the visual map in the corner as will as the generate all the rooms for the map&lt;/p&gt;" style="text;html=1;whiteSpace=wrap;overflow=hidden;rounded=0;" vertex="1" parent="1">
          <mxGeometry x="-233" y="-210" width="190" height="120" as="geometry" />
        </mxCell>
        <mxCell id="L7qjdz2lYvju2Gd1Jquw-22" value="&lt;p style=&quot;margin:0px;margin-top:4px;text-align:center;&quot;&gt;&lt;b&gt;CardOutlineManager&lt;/b&gt;&lt;/p&gt;" style="verticalAlign=top;align=left;overflow=fill;html=1;whiteSpace=wrap;" vertex="1" parent="1">
          <mxGeometry x="50" y="-410" width="240" height="150" as="geometry" />
        </mxCell>
        <mxCell id="L7qjdz2lYvju2Gd1Jquw-23" value="&lt;h1 style=&quot;margin-top: 0px;&quot;&gt;CardOutlineManager&lt;/h1&gt;&lt;p&gt;holds its own class for room definitions. this creates the visual map in the corner as will as the generate all the rooms for the map&lt;/p&gt;" style="text;html=1;whiteSpace=wrap;overflow=hidden;rounded=0;" vertex="1" parent="1">
          <mxGeometry x="50" y="-550" width="240" height="120" as="geometry" />
        </mxCell>
        <mxCell id="L7qjdz2lYvju2Gd1Jquw-25" value="&lt;p style=&quot;margin:0px;margin-top:4px;text-align:center;&quot;&gt;&lt;b&gt;CardData&lt;/b&gt;&lt;/p&gt;" style="verticalAlign=top;align=left;overflow=fill;html=1;whiteSpace=wrap;" vertex="1" parent="1">
          <mxGeometry x="-204.5" y="630" width="133" height="90" as="geometry" />
        </mxCell>
        <mxCell id="L7qjdz2lYvju2Gd1Jquw-66" style="edgeStyle=orthogonalEdgeStyle;rounded=0;orthogonalLoop=1;jettySize=auto;html=1;exitX=0;exitY=0.75;exitDx=0;exitDy=0;entryX=1;entryY=0.75;entryDx=0;entryDy=0;" edge="1" parent="1" source="L7qjdz2lYvju2Gd1Jquw-26" target="L7qjdz2lYvju2Gd1Jquw-13">
          <mxGeometry relative="1" as="geometry" />
        </mxCell>
        <mxCell id="L7qjdz2lYvju2Gd1Jquw-68" style="edgeStyle=orthogonalEdgeStyle;rounded=0;orthogonalLoop=1;jettySize=auto;html=1;exitX=0.25;exitY=1;exitDx=0;exitDy=0;entryX=0;entryY=0.25;entryDx=0;entryDy=0;" edge="1" parent="1" target="L7qjdz2lYvju2Gd1Jquw-10">
          <mxGeometry relative="1" as="geometry">
            <mxPoint x="-233" y="-370" as="targetPoint" />
            <mxPoint x="52.5" y="732.5" as="sourcePoint" />
            <Array as="points">
              <mxPoint x="52" y="753" />
              <mxPoint x="-320" y="753" />
              <mxPoint x="-320" y="-372" />
            </Array>
          </mxGeometry>
        </mxCell>
        <mxCell id="L7qjdz2lYvju2Gd1Jquw-74" style="edgeStyle=orthogonalEdgeStyle;rounded=0;orthogonalLoop=1;jettySize=auto;html=1;exitX=1;exitY=0.5;exitDx=0;exitDy=0;entryX=0;entryY=0.5;entryDx=0;entryDy=0;" edge="1" parent="1" source="L7qjdz2lYvju2Gd1Jquw-26" target="L7qjdz2lYvju2Gd1Jquw-72">
          <mxGeometry relative="1" as="geometry" />
        </mxCell>
        <mxCell id="L7qjdz2lYvju2Gd1Jquw-26" value="&lt;p style=&quot;margin:0px;margin-top:4px;text-align:center;&quot;&gt;&lt;b&gt;Deck&lt;/b&gt;&lt;/p&gt;" style="verticalAlign=top;align=left;overflow=fill;html=1;whiteSpace=wrap;" vertex="1" parent="1">
          <mxGeometry x="20" y="580" width="170" height="150" as="geometry" />
        </mxCell>
        <mxCell id="L7qjdz2lYvju2Gd1Jquw-27" value="&lt;h1 style=&quot;margin-top: 0px;&quot;&gt;Deck&lt;/h1&gt;&lt;p&gt;holds its own class for room definitions. this creates the visual map in the corner as will as the generate all the rooms for the map&lt;/p&gt;" style="text;html=1;whiteSpace=wrap;overflow=hidden;rounded=0;" vertex="1" parent="1">
          <mxGeometry x="20" y="440" width="170" height="120" as="geometry" />
        </mxCell>
        <mxCell id="L7qjdz2lYvju2Gd1Jquw-36" style="edgeStyle=orthogonalEdgeStyle;rounded=0;orthogonalLoop=1;jettySize=auto;html=1;exitX=1;exitY=0.5;exitDx=0;exitDy=0;entryX=0;entryY=0.5;entryDx=0;entryDy=0;" edge="1" parent="1" source="L7qjdz2lYvju2Gd1Jquw-30" target="L7qjdz2lYvju2Gd1Jquw-34">
          <mxGeometry relative="1" as="geometry" />
        </mxCell>
        <mxCell id="L7qjdz2lYvju2Gd1Jquw-60" style="edgeStyle=orthogonalEdgeStyle;rounded=0;orthogonalLoop=1;jettySize=auto;html=1;exitX=0;exitY=0.25;exitDx=0;exitDy=0;entryX=0;entryY=0.75;entryDx=0;entryDy=0;" edge="1" parent="1" source="L7qjdz2lYvju2Gd1Jquw-30" target="L7qjdz2lYvju2Gd1Jquw-15">
          <mxGeometry relative="1" as="geometry" />
        </mxCell>
        <mxCell id="L7qjdz2lYvju2Gd1Jquw-30" value="&lt;p style=&quot;margin:0px;margin-top:4px;text-align:center;&quot;&gt;&lt;b&gt;MonsterScript&lt;/b&gt;&lt;/p&gt;" style="verticalAlign=top;align=left;overflow=fill;html=1;whiteSpace=wrap;" vertex="1" parent="1">
          <mxGeometry x="-223" y="260" width="170" height="150" as="geometry" />
        </mxCell>
        <mxCell id="L7qjdz2lYvju2Gd1Jquw-31" value="&lt;h1 style=&quot;margin-top: 0px;&quot;&gt;MonsterScript&lt;/h1&gt;&lt;p&gt;holds its own class for room definitions. this creates the visual map in the corner as will as the generate all the rooms for the map&lt;/p&gt;" style="text;html=1;whiteSpace=wrap;overflow=hidden;rounded=0;" vertex="1" parent="1">
          <mxGeometry x="-223" y="120" width="170" height="120" as="geometry" />
        </mxCell>
        <mxCell id="L7qjdz2lYvju2Gd1Jquw-34" value="&lt;p style=&quot;margin:0px;margin-top:4px;text-align:center;&quot;&gt;&lt;b&gt;GlobalResources&lt;/b&gt;&lt;/p&gt;" style="verticalAlign=top;align=left;overflow=fill;html=1;whiteSpace=wrap;" vertex="1" parent="1">
          <mxGeometry x="10" y="260" width="220" height="150" as="geometry" />
        </mxCell>
        <mxCell id="L7qjdz2lYvju2Gd1Jquw-35" value="&lt;h1 style=&quot;margin-top: 0px;&quot;&gt;GlobalResources&lt;/h1&gt;&lt;p&gt;holds its own class for room definitions. this creates the visual map in the corner as will as the generate all the rooms for the map&lt;/p&gt;" style="text;html=1;whiteSpace=wrap;overflow=hidden;rounded=0;" vertex="1" parent="1">
          <mxGeometry x="10" y="120" width="220" height="120" as="geometry" />
        </mxCell>
        <mxCell id="L7qjdz2lYvju2Gd1Jquw-39" style="edgeStyle=orthogonalEdgeStyle;rounded=0;orthogonalLoop=1;jettySize=auto;html=1;exitX=0.5;exitY=1;exitDx=0;exitDy=0;entryX=0.5;entryY=0;entryDx=0;entryDy=0;" edge="1" parent="1" source="L7qjdz2lYvju2Gd1Jquw-37" target="L7qjdz2lYvju2Gd1Jquw-38">
          <mxGeometry relative="1" as="geometry" />
        </mxCell>
        <mxCell id="L7qjdz2lYvju2Gd1Jquw-86" style="edgeStyle=orthogonalEdgeStyle;rounded=0;orthogonalLoop=1;jettySize=auto;html=1;exitX=1;exitY=0.5;exitDx=0;exitDy=0;entryX=0;entryY=0.5;entryDx=0;entryDy=0;" edge="1" parent="1" source="L7qjdz2lYvju2Gd1Jquw-37" target="L7qjdz2lYvju2Gd1Jquw-85">
          <mxGeometry relative="1" as="geometry" />
        </mxCell>
        <mxCell id="L7qjdz2lYvju2Gd1Jquw-37" value="MapScript" style="ellipse;whiteSpace=wrap;html=1;" vertex="1" parent="1">
          <mxGeometry x="870" y="-370" width="120" height="80" as="geometry" />
        </mxCell>
        <mxCell id="L7qjdz2lYvju2Gd1Jquw-44" style="rounded=0;orthogonalLoop=1;jettySize=auto;html=1;exitX=0.5;exitY=1;exitDx=0;exitDy=0;entryX=0.5;entryY=0;entryDx=0;entryDy=0;edgeStyle=orthogonalEdgeStyle;curved=1;" edge="1" parent="1" source="L7qjdz2lYvju2Gd1Jquw-38" target="L7qjdz2lYvju2Gd1Jquw-48">
          <mxGeometry relative="1" as="geometry">
            <mxPoint x="640" y="-20" as="targetPoint" />
            <Array as="points">
              <mxPoint x="930" y="-40" />
              <mxPoint x="550" y="-40" />
            </Array>
          </mxGeometry>
        </mxCell>
        <mxCell id="L7qjdz2lYvju2Gd1Jquw-45" style="rounded=0;orthogonalLoop=1;jettySize=auto;html=1;exitX=0.5;exitY=1;exitDx=0;exitDy=0;entryX=0.5;entryY=0;entryDx=0;entryDy=0;edgeStyle=orthogonalEdgeStyle;curved=1;" edge="1" parent="1" source="L7qjdz2lYvju2Gd1Jquw-38" target="L7qjdz2lYvju2Gd1Jquw-41">
          <mxGeometry relative="1" as="geometry" />
        </mxCell>
        <mxCell id="L7qjdz2lYvju2Gd1Jquw-46" style="rounded=0;orthogonalLoop=1;jettySize=auto;html=1;exitX=0.5;exitY=1;exitDx=0;exitDy=0;entryX=0.5;entryY=0;entryDx=0;entryDy=0;edgeStyle=orthogonalEdgeStyle;curved=1;" edge="1" parent="1" source="L7qjdz2lYvju2Gd1Jquw-38" target="L7qjdz2lYvju2Gd1Jquw-42">
          <mxGeometry relative="1" as="geometry" />
        </mxCell>
        <mxCell id="L7qjdz2lYvju2Gd1Jquw-47" style="rounded=0;orthogonalLoop=1;jettySize=auto;html=1;exitX=0.5;exitY=1;exitDx=0;exitDy=0;entryX=0.5;entryY=0;entryDx=0;entryDy=0;edgeStyle=orthogonalEdgeStyle;curved=1;" edge="1" parent="1" source="L7qjdz2lYvju2Gd1Jquw-38" target="L7qjdz2lYvju2Gd1Jquw-43">
          <mxGeometry relative="1" as="geometry" />
        </mxCell>
        <mxCell id="L7qjdz2lYvju2Gd1Jquw-38" value="RoomScript" style="ellipse;whiteSpace=wrap;html=1;" vertex="1" parent="1">
          <mxGeometry x="870" y="-240" width="120" height="80" as="geometry" />
        </mxCell>
        <mxCell id="L7qjdz2lYvju2Gd1Jquw-52" style="edgeStyle=orthogonalEdgeStyle;rounded=0;orthogonalLoop=1;jettySize=auto;html=1;exitX=0.5;exitY=1;exitDx=0;exitDy=0;entryX=0.5;entryY=0;entryDx=0;entryDy=0;curved=1;" edge="1" parent="1" source="L7qjdz2lYvju2Gd1Jquw-41" target="L7qjdz2lYvju2Gd1Jquw-51">
          <mxGeometry relative="1" as="geometry" />
        </mxCell>
        <mxCell id="L7qjdz2lYvju2Gd1Jquw-79" style="edgeStyle=orthogonalEdgeStyle;rounded=0;orthogonalLoop=1;jettySize=auto;html=1;exitX=0.5;exitY=1;exitDx=0;exitDy=0;entryX=0;entryY=0.5;entryDx=0;entryDy=0;curved=1;" edge="1" parent="1" source="L7qjdz2lYvju2Gd1Jquw-41" target="L7qjdz2lYvju2Gd1Jquw-37">
          <mxGeometry relative="1" as="geometry">
            <Array as="points">
              <mxPoint x="760" y="620" />
              <mxPoint x="390" y="620" />
              <mxPoint x="390" y="-330" />
            </Array>
          </mxGeometry>
        </mxCell>
        <mxCell id="L7qjdz2lYvju2Gd1Jquw-41" value="CombatManager" style="ellipse;whiteSpace=wrap;html=1;" vertex="1" parent="1">
          <mxGeometry x="700" y="530" width="120" height="80" as="geometry" />
        </mxCell>
        <mxCell id="L7qjdz2lYvju2Gd1Jquw-55" style="edgeStyle=orthogonalEdgeStyle;rounded=0;orthogonalLoop=1;jettySize=auto;html=1;exitX=0.5;exitY=1;exitDx=0;exitDy=0;entryX=0.5;entryY=0;entryDx=0;entryDy=0;curved=1;" edge="1" parent="1" source="L7qjdz2lYvju2Gd1Jquw-42" target="L7qjdz2lYvju2Gd1Jquw-54">
          <mxGeometry relative="1" as="geometry" />
        </mxCell>
        <mxCell id="L7qjdz2lYvju2Gd1Jquw-76" style="rounded=0;orthogonalLoop=1;jettySize=auto;html=1;exitX=0;exitY=0.5;exitDx=0;exitDy=0;entryX=1;entryY=0.5;entryDx=0;entryDy=0;edgeStyle=orthogonalEdgeStyle;curved=1;" edge="1" parent="1" source="L7qjdz2lYvju2Gd1Jquw-42" target="L7qjdz2lYvju2Gd1Jquw-41">
          <mxGeometry relative="1" as="geometry" />
        </mxCell>
        <mxCell id="L7qjdz2lYvju2Gd1Jquw-42" value="MonsterScript" style="ellipse;whiteSpace=wrap;html=1;" vertex="1" parent="1">
          <mxGeometry x="1030" y="160" width="120" height="80" as="geometry" />
        </mxCell>
        <mxCell id="L7qjdz2lYvju2Gd1Jquw-82" style="edgeStyle=orthogonalEdgeStyle;rounded=0;orthogonalLoop=1;jettySize=auto;html=1;exitX=0;exitY=1;exitDx=0;exitDy=0;entryX=0;entryY=0;entryDx=0;entryDy=0;curved=1;" edge="1" parent="1" source="L7qjdz2lYvju2Gd1Jquw-43" target="L7qjdz2lYvju2Gd1Jquw-56">
          <mxGeometry relative="1" as="geometry">
            <Array as="points">
              <mxPoint x="1228" y="5" />
              <mxPoint x="1220" y="5" />
              <mxPoint x="1220" y="35" />
              <mxPoint x="1228" y="35" />
            </Array>
          </mxGeometry>
        </mxCell>
        <mxCell id="L7qjdz2lYvju2Gd1Jquw-84" style="edgeStyle=orthogonalEdgeStyle;rounded=0;orthogonalLoop=1;jettySize=auto;html=1;exitX=1;exitY=0.5;exitDx=0;exitDy=0;entryX=0;entryY=0.5;entryDx=0;entryDy=0;" edge="1" parent="1" source="L7qjdz2lYvju2Gd1Jquw-43" target="L7qjdz2lYvju2Gd1Jquw-83">
          <mxGeometry relative="1" as="geometry" />
        </mxCell>
        <mxCell id="L7qjdz2lYvju2Gd1Jquw-43" value="CardLibrary" style="ellipse;whiteSpace=wrap;html=1;" vertex="1" parent="1">
          <mxGeometry x="1210" y="-70" width="120" height="80" as="geometry" />
        </mxCell>
        <mxCell id="L7qjdz2lYvju2Gd1Jquw-50" style="edgeStyle=orthogonalEdgeStyle;rounded=0;orthogonalLoop=1;jettySize=auto;html=1;exitX=0.5;exitY=1;exitDx=0;exitDy=0;entryX=0.5;entryY=0;entryDx=0;entryDy=0;curved=1;" edge="1" parent="1" source="L7qjdz2lYvju2Gd1Jquw-48" target="L7qjdz2lYvju2Gd1Jquw-49">
          <mxGeometry relative="1" as="geometry" />
        </mxCell>
        <mxCell id="L7qjdz2lYvju2Gd1Jquw-58" style="rounded=0;orthogonalLoop=1;jettySize=auto;html=1;exitX=1;exitY=0.5;exitDx=0;exitDy=0;entryX=0;entryY=0.5;entryDx=0;entryDy=0;" edge="1" parent="1" source="L7qjdz2lYvju2Gd1Jquw-48" target="L7qjdz2lYvju2Gd1Jquw-41">
          <mxGeometry relative="1" as="geometry" />
        </mxCell>
        <mxCell id="L7qjdz2lYvju2Gd1Jquw-48" value="CardManager" style="ellipse;whiteSpace=wrap;html=1;" vertex="1" parent="1">
          <mxGeometry x="490" y="250" width="120" height="80" as="geometry" />
        </mxCell>
        <mxCell id="L7qjdz2lYvju2Gd1Jquw-49" value="CardOutlineManager" style="ellipse;whiteSpace=wrap;html=1;" vertex="1" parent="1">
          <mxGeometry x="490" y="360" width="120" height="80" as="geometry" />
        </mxCell>
        <mxCell id="L7qjdz2lYvju2Gd1Jquw-51" value="DamageVisulizer" style="ellipse;whiteSpace=wrap;html=1;" vertex="1" parent="1">
          <mxGeometry x="700" y="640" width="120" height="80" as="geometry" />
        </mxCell>
        <mxCell id="L7qjdz2lYvju2Gd1Jquw-54" value="GlobalResources" style="ellipse;whiteSpace=wrap;html=1;" vertex="1" parent="1">
          <mxGeometry x="1030" y="265" width="120" height="80" as="geometry" />
        </mxCell>
        <mxCell id="L7qjdz2lYvju2Gd1Jquw-78" style="rounded=0;orthogonalLoop=1;jettySize=auto;html=1;exitX=0.5;exitY=1;exitDx=0;exitDy=0;entryX=0.5;entryY=0;entryDx=0;entryDy=0;edgeStyle=orthogonalEdgeStyle;curved=1;" edge="1" parent="1" source="L7qjdz2lYvju2Gd1Jquw-56" target="L7qjdz2lYvju2Gd1Jquw-77">
          <mxGeometry relative="1" as="geometry" />
        </mxCell>
        <mxCell id="L7qjdz2lYvju2Gd1Jquw-81" style="edgeStyle=orthogonalEdgeStyle;rounded=0;orthogonalLoop=1;jettySize=auto;html=1;exitX=1;exitY=0;exitDx=0;exitDy=0;entryX=1;entryY=1;entryDx=0;entryDy=0;curved=1;" edge="1" parent="1" source="L7qjdz2lYvju2Gd1Jquw-56" target="L7qjdz2lYvju2Gd1Jquw-43">
          <mxGeometry relative="1" as="geometry">
            <Array as="points">
              <mxPoint x="1312" y="45" />
              <mxPoint x="1320" y="45" />
              <mxPoint x="1320" y="5" />
              <mxPoint x="1312" y="5" />
            </Array>
          </mxGeometry>
        </mxCell>
        <mxCell id="L7qjdz2lYvju2Gd1Jquw-88" style="edgeStyle=orthogonalEdgeStyle;rounded=0;orthogonalLoop=1;jettySize=auto;html=1;exitX=0;exitY=0.5;exitDx=0;exitDy=0;entryX=0.5;entryY=0;entryDx=0;entryDy=0;curved=1;" edge="1" parent="1" source="L7qjdz2lYvju2Gd1Jquw-56" target="L7qjdz2lYvju2Gd1Jquw-48">
          <mxGeometry relative="1" as="geometry">
            <mxPoint x="550" y="240" as="targetPoint" />
          </mxGeometry>
        </mxCell>
        <mxCell id="L7qjdz2lYvju2Gd1Jquw-56" value="Deck" style="ellipse;whiteSpace=wrap;html=1;" vertex="1" parent="1">
          <mxGeometry x="1210" y="35" width="120" height="80" as="geometry" />
        </mxCell>
        <mxCell id="L7qjdz2lYvju2Gd1Jquw-69" value="&lt;p style=&quot;margin:0px;margin-top:4px;text-align:center;&quot;&gt;&lt;b&gt;DamageVisualizer&lt;/b&gt;&lt;/p&gt;" style="verticalAlign=top;align=left;overflow=fill;html=1;whiteSpace=wrap;" vertex="1" parent="1">
          <mxGeometry x="20" y="-70" width="220" height="150" as="geometry" />
        </mxCell>
        <mxCell id="L7qjdz2lYvju2Gd1Jquw-70" value="&lt;h1 style=&quot;margin-top: 0px;&quot;&gt;DamageVisualizer&lt;/h1&gt;&lt;p&gt;holds its own class for room definitions. this creates the visual map in the corner as will as the generate all the rooms for the map&lt;/p&gt;" style="text;html=1;whiteSpace=wrap;overflow=hidden;rounded=0;" vertex="1" parent="1">
          <mxGeometry x="20" y="-210" width="220" height="120" as="geometry" />
        </mxCell>
        <mxCell id="L7qjdz2lYvju2Gd1Jquw-72" value="&lt;p style=&quot;margin:0px;margin-top:4px;text-align:center;&quot;&gt;&lt;b&gt;Card&lt;/b&gt;&lt;/p&gt;" style="verticalAlign=top;align=left;overflow=fill;html=1;whiteSpace=wrap;" vertex="1" parent="1">
          <mxGeometry x="250" y="580" width="170" height="150" as="geometry" />
        </mxCell>
        <mxCell id="L7qjdz2lYvju2Gd1Jquw-73" value="&lt;h1 style=&quot;margin-top: 0px;&quot;&gt;Card&lt;/h1&gt;&lt;p&gt;holds its own class for room definitions. this creates the visual map in the corner as will as the generate all the rooms for the map&lt;/p&gt;" style="text;html=1;whiteSpace=wrap;overflow=hidden;rounded=0;" vertex="1" parent="1">
          <mxGeometry x="250" y="440" width="170" height="120" as="geometry" />
        </mxCell>
        <mxCell id="L7qjdz2lYvju2Gd1Jquw-77" value="Card" style="ellipse;whiteSpace=wrap;html=1;" vertex="1" parent="1">
          <mxGeometry x="1230" y="145" width="120" height="80" as="geometry" />
        </mxCell>
        <mxCell id="L7qjdz2lYvju2Gd1Jquw-83" value="CardData" style="ellipse;whiteSpace=wrap;html=1;" vertex="1" parent="1">
          <mxGeometry x="1360" y="-70" width="120" height="80" as="geometry" />
        </mxCell>
        <mxCell id="L7qjdz2lYvju2Gd1Jquw-85" value="_room" style="ellipse;whiteSpace=wrap;html=1;" vertex="1" parent="1">
          <mxGeometry x="1020" y="-370" width="120" height="80" as="geometry" />
        </mxCell>
      </root>
    </mxGraphModel>
  </diagram>
</mxfile>
